<?xml version="1.0" encoding="utf-8"?>
<!-- Uploaded to: SVG Repo, www.svgrepo.com, Generator: SVG Repo Mixer Tools -->
<svg fill="#000000" width="800px" height="800px" viewBox="0 0 32 32" version="1.1" xmlns="http://www.w3.org/2000/svg">
<title>arrow-up-arrow-down</title>
<path d="M27.885 24.115c-0.227-0.226-0.539-0.366-0.885-0.366s-0.658 0.14-0.885 0.366v0l-2.865 2.867v-24.982c0-0.69-0.56-1.25-1.25-1.25s-1.25 0.56-1.25 1.25v0 24.981l-2.866-2.866c-0.226-0.226-0.539-0.366-0.884-0.366-0.691 0-1.251 0.56-1.251 1.251 0 0.346 0.14 0.658 0.367 0.885v0l4.999 5c0.013 0.013 0.031 0.017 0.044 0.029 0.102 0.098 0.222 0.179 0.355 0.237l0.008 0.003 0.001 0c0.142 0.060 0.306 0.096 0.479 0.096 0.345 0 0.657-0.14 0.883-0.365l5-5c0.225-0.227 0.365-0.54 0.365-0.885s-0.139-0.658-0.365-0.885l0 0zM15.884 6.116l-5-5c-0.011-0.011-0.027-0.015-0.039-0.026-0.104-0.1-0.225-0.183-0.359-0.243l-0.008-0.003-0.004-0c-0.129-0.050-0.279-0.079-0.435-0.079-0.072 0-0.144 0.006-0.213 0.018l0.007-0.001c-0.056 0.007-0.106 0.017-0.154 0.030l0.008-0.002c-0.224 0.051-0.418 0.158-0.572 0.306l0.001-0-5 5c-0.224 0.226-0.363 0.537-0.363 0.881 0 0.69 0.56 1.25 1.25 1.25 0.344 0 0.655-0.139 0.881-0.363l2.866-2.866v24.982c0 0.69 0.56 1.25 1.25 1.25s1.25-0.56 1.25-1.25v0-24.982l2.866 2.866c0.226 0.225 0.537 0.363 0.881 0.363 0.69 0 1.25-0.56 1.25-1.25 0-0.344-0.139-0.655-0.363-0.881l0 0z"></path>
</svg>